<svg xmlns="http://www.w3.org/2000/svg" xmlns:xlink="http://www.w3.org/1999/xlink" viewBox="0 0 4770.81 4770.81"><defs><style>.cls-1{fill:url(#linear-gradient);}.cls-2{fill:#182028;}.cls-3{fill:url(#linear-gradient-2);}.cls-4{fill:url(#linear-gradient-3);}.cls-5{fill:url(#linear-gradient-4);}</style><linearGradient id="linear-gradient" x1="4607.62" y1="-532.49" x2="-500.89" y2="6429.74" gradientTransform="translate(2432.42 -1007.19) rotate(45)" gradientUnits="userSpaceOnUse"><stop offset="0" stop-color="#50e9f4"/><stop offset="0.51" stop-color="#0052ad"/><stop offset="1" stop-color="#0055af"/></linearGradient><linearGradient id="linear-gradient-2" x1="1462.79" y1="2782.98" x2="3628.57" y2="2782.98" gradientUnits="userSpaceOnUse"><stop offset="0" stop-color="#6d6e71"/><stop offset="1" stop-color="#fff"/></linearGradient><linearGradient id="linear-gradient-3" x1="1091.24" y1="2234.98" x2="3641.91" y2="2234.98" gradientUnits="userSpaceOnUse"><stop offset="0" stop-color="#13b3e7"/><stop offset="1" stop-color="#003a9c"/></linearGradient><linearGradient id="linear-gradient-4" x1="1196.13" y1="1354.31" x2="3439.24" y2="1354.31" xlink:href="#linear-gradient-2"/></defs><title>Logo</title><g id="Circle"><circle class="cls-1" cx="2432" cy="2432.59" r="2385.41" transform="translate(-1054.38 2384.99) rotate(-45)"/><circle class="cls-2" cx="2423.54" cy="2426.13" r="2213.72" transform="translate(-1052.29 2377.11) rotate(-45)"/></g><g id="Logo"><polygon id="_3" data-name="3" class="cls-3" points="2701.02 1854.98 1462.8 3241.2 1462.8 3710.98 3628.57 3710.98 3628.57 3104.31 2801.46 3104.31 2727.24 3203.87 3513.46 3203.87 3513.46 3610.98 1567.24 3610.98 1567.24 3279.87 2828.57 1854.98 2701.02 1854.98"/><polygon id="_2" data-name="2" class="cls-4" points="1091.24 3118.98 2133.91 1956.31 1547.24 1956.31 1547.24 1345.64 3641.91 1345.64 3641.91 1818.98 2488.57 3124.31 2355.24 3124.31 3543.24 1781.64 3543.24 1450.98 1671.24 1450.98 1669.91 1857.64 2360.57 1857.64 1234.35 3119.87 1091.24 3118.98"/><polygon id="_1" data-name="1" class="cls-5" points="1441.02 1542.53 1441.02 1642.98 1196.13 1642.98 1196.13 1065.64 3439.24 1065.64 3439.24 1272.31 3339.24 1272.31 3339.24 1166.31 1306.24 1166.31 1306.24 1541.31 1441.02 1542.53"/></g></svg>